<?xml version="1.0" standalone="no"?>
<!DOCTYPE svg PUBLIC "-//W3C//DTD SVG 20010904//EN"
 "http://www.w3.org/TR/2001/REC-SVG-20010904/DTD/svg10.dtd">
<svg version="1.0" xmlns="http://www.w3.org/2000/svg"
 width="118.000000pt" height="119.000000pt" viewBox="0 0 118.000000 119.000000"
 preserveAspectRatio="xMidYMid meet">

<g transform="translate(0.000000,119.000000) scale(0.100000,-0.100000)"
fill="#000000" stroke="none">
<path d="M451 1004 c-17 -37 -14 -60 13 -91 20 -24 26 -25 40 -14 30 25 16 99
-23 120 -15 8 -20 5 -30 -15z"/>
<path d="M593 1008 c-31 -34 -36 -63 -18 -98 8 -16 20 -30 25 -30 14 0 50 51
50 72 0 17 -26 78 -34 78 -1 0 -12 -10 -23 -22z"/>
<path d="M704 948 c-35 -16 -53 -68 -35 -96 7 -12 14 -11 40 3 35 17 55 57 46
86 -7 21 -19 23 -51 7z"/>
<path d="M351 901 c-12 -8 -13 -15 -3 -35 17 -37 55 -59 92 -51 38 8 38 28 1
66 -30 29 -64 37 -90 20z"/>
<path d="M532 865 c-16 -35 -15 -66 4 -93 20 -29 48 -28 62 3 17 37 15 50 -14
84 -31 38 -38 38 -52 6z"/>
<path d="M750 850 c-11 -11 -20 -27 -20 -35 0 -23 44 -36 78 -24 31 11 59 50
48 68 -12 19 -84 13 -106 -9z"/>
<path d="M270 811 c-17 -33 -11 -61 21 -94 l31 -31 14 25 c19 35 17 76 -6 99
-25 25 -46 25 -60 1z"/>
<path d="M886 785 c-35 -33 -36 -115 0 -115 40 0 68 73 48 124 -8 22 -17 20
-48 -9z"/>
<path d="M418 788 c-34 -12 -35 -22 -3 -53 27 -28 71 -33 99 -12 16 11 17 17
7 36 -7 12 -23 26 -37 31 -29 12 -30 12 -66 -2z"/>
<path d="M619 771 c-49 -40 21 -83 83 -52 42 20 47 44 13 59 -37 17 -69 15
-96 -7z"/>
<path d="M786 727 c-27 -27 -33 -65 -16 -98 15 -27 35 -24 60 8 24 30 22 76
-4 102 -12 12 -18 10 -40 -12z"/>
<path d="M565 688 c-3 -18 -6 -60 -8 -93 l-2 -60 -62 -3 c-35 -2 -80 2 -100 7
-20 6 -39 8 -42 5 -12 -11 33 -33 88 -44 31 -6 68 -13 84 -16 26 -5 27 -7 26
-72 0 -37 -4 -100 -8 -140 l-7 -72 37 0 37 0 -4 118 c-3 64 -6 127 -8 138 -2
19 7 24 75 43 97 25 149 47 149 60 0 14 -11 14 -82 -5 -33 -8 -79 -14 -101
-12 l-42 3 -3 88 c-3 87 -16 115 -27 55z"/>
<path d="M361 684 c-27 -35 -27 -66 2 -100 l23 -27 23 29 c26 33 23 77 -8 107
-18 18 -19 18 -40 -9z"/>
<path d="M180 685 c0 -21 34 -66 54 -71 42 -10 71 -1 68 21 -7 37 -32 55 -79
55 -23 0 -43 -2 -43 -5z"/>
<path d="M630 655 c0 -36 42 -75 80 -75 25 0 30 4 30 24 0 39 -36 76 -76 76
-30 0 -34 -3 -34 -25z"/>
<path d="M467 653 c-8 -10 -17 -31 -19 -48 -2 -25 1 -31 20 -33 33 -5 72 34
72 70 0 24 -4 28 -28 28 -16 0 -36 -8 -45 -17z"/>
<path d="M864 629 c-19 -21 -18 -21 5 -40 31 -25 62 -24 96 3 l28 22 -23 18
c-30 25 -82 23 -106 -3z"/>
<path d="M225 555 c-14 -13 -25 -36 -25 -50 0 -22 4 -25 34 -25 40 0 76 37 76
76 0 20 -5 24 -30 24 -19 0 -40 -9 -55 -25z"/>
<path d="M850 530 c0 -20 29 -68 45 -74 9 -3 30 -6 46 -6 24 0 29 4 29 25 0
38 -33 65 -80 65 -22 0 -40 -5 -40 -10z"/>
<path d="M306 478 c-28 -25 -34 -49 -23 -90 8 -31 14 -33 38 -15 27 20 41 56
34 87 -9 41 -19 44 -49 18z"/>
<path d="M787 493 c-4 -3 -7 -23 -7 -44 0 -29 6 -42 27 -59 35 -27 47 -21 51
23 2 28 -3 42 -22 62 -26 26 -38 30 -49 18z"/>
<path d="M392 460 c-25 -41 -3 -120 33 -120 36 0 47 88 15 120 -25 25 -32 25
-48 0z"/>
<path d="M690 460 c-26 -26 -33 -60 -21 -93 13 -34 34 -34 60 -1 24 30 26 52
9 89 -14 30 -22 31 -48 5z"/>
</g>
</svg>
